<svg width="1442" height="1407" viewBox="0 0 1442 1407" fill="none" xmlns="http://www.w3.org/2000/svg">
<path d="M168.826 693L938.531 838.07" stroke="#8B8B8B" stroke-width="24"/>
<path d="M1158.5 426.231L897.5 301.23L524.11 369.353L794.846 529.207L1158.5 426.231Z" fill="#B9D8ED"/>
<line y1="-2.5" x2="263.344" y2="-2.5" transform="matrix(0 1 1 0 783.76 534)" stroke="#8B8B8B" stroke-width="5"/>
<line x1="271.582" y1="452.031" x2="268.5" y2="701.711" stroke="#8B8B8B" stroke-width="5"/>
<line y1="-2.5" x2="364.062" y2="-2.5" transform="matrix(-4.37114e-08 1 1 4.37114e-08 515.795 383)" stroke="#8B8B8B" stroke-width="5"/>
<line y1="-12" x2="808.585" y2="-12" transform="matrix(0.969057 0.246835 0.246835 -0.969057 160.049 966)" stroke="#8B8B8B" stroke-width="24"/>
<line y1="-12" x2="510.756" y2="-12" transform="matrix(0.445041 0.89551 0.89551 -0.445041 796.695 527)" stroke="#8B8B8B" stroke-width="24"/>
<line y1="-12" x2="325.722" y2="-12" transform="matrix(-0.868069 -0.496444 -0.496444 0.868069 788.379 547)" stroke="#8B8B8B" stroke-width="24"/>
<line x1="899.447" y1="301.46" x2="519.447" y2="370.46" stroke="#8B8B8B" stroke-width="5"/>
<line x1="1279" y1="957.705" x2="1284" y2="754.705" stroke="#8B8B8B" stroke-width="24"/>
<path d="M1340 772.028L1157.5 427.028L789.5 523.028L1013 970.528L1340 772.028Z" fill="#B9D8ED"/>
<line x1="897.087" y1="300.749" x2="1160.09" y2="427.749" stroke="#8B8B8B" stroke-width="5"/>
<line x1="1344.22" y1="777.264" x2="999.218" y2="986.264" stroke="#8B8B8B" stroke-width="24"/>
<line y1="-2.5" x2="52.9195" y2="-2.5" transform="matrix(-0.907959 0.419058 0.419058 0.907959 160.049 803)" stroke="#8B8B8B" stroke-width="5"/>
<line y1="-12" x2="284.058" y2="-12" transform="matrix(0.962863 -0.269992 -0.269992 -0.962863 249.68 442)" stroke="#8B8B8B" stroke-width="24"/>
<line x1="787.745" y1="524.582" x2="1158.37" y2="427.415" stroke="#8B8B8B" stroke-width="5"/>
<line x1="1346.79" y1="787.164" x2="1156.79" y2="426.164" stroke="#8B8B8B" stroke-width="5"/>
<line y1="-12" x2="406.576" y2="-12" transform="matrix(-0.3909 0.920433 0.920433 0.3909 270.932 451)" stroke="#8B8B8B" stroke-width="24"/>
<line y1="-12" x2="316.937" y2="-12" transform="matrix(4.37114e-08 1 1 -4.37114e-08 173.91 674)" stroke="#8B8B8B" stroke-width="24"/>
<line x1="931" y1="838" x2="931" y2="1172" stroke="#8B8B8B" stroke-width="24"/>
<line x1="1283.59" y1="948.028" x2="930.591" y2="1180.03" stroke="#8B8B8B" stroke-width="24"/>
<path d="M173.098 733.803C172.436 734.301 172.303 735.241 172.801 735.903L180.918 746.691C181.416 747.353 182.356 747.486 183.018 746.988C183.68 746.49 183.813 745.549 183.315 744.887L176.1 735.298L185.689 728.084C186.351 727.586 186.484 726.645 185.986 725.983C185.488 725.321 184.548 725.188 183.886 725.687L173.098 733.803ZM266.21 746.517L174.21 733.516L173.79 736.487L265.79 749.487L266.21 746.517Z" fill="#FA0000"/>
<path d="M266.901 749.199C267.563 748.701 267.696 747.761 267.198 747.099L259.082 736.311C258.583 735.649 257.643 735.516 256.981 736.015C256.319 736.513 256.186 737.453 256.684 738.115L263.899 747.704L254.31 754.919C253.648 755.417 253.515 756.357 254.013 757.019C254.511 757.681 255.451 757.814 256.113 757.316L266.901 749.199ZM200.448 740.253L265.789 749.486L266.209 746.516L200.868 737.282L200.448 740.253Z" fill="#FA0000"/>
<path d="M943.046 1003.84C942.407 1004.37 942.315 1005.31 942.842 1005.95L951.424 1016.37C951.951 1017.01 952.896 1017.11 953.535 1016.58C954.175 1016.05 954.266 1015.11 953.74 1014.47L946.111 1005.2L955.374 997.575C956.014 997.049 956.105 996.104 955.579 995.464C955.052 994.825 954.107 994.733 953.467 995.26L943.046 1003.84ZM1006.14 1009.51L944.144 1003.51L943.855 1006.49L1005.86 1012.49L1006.14 1009.51Z" fill="#FA0000"/>
<path d="M1006.95 1012.16C1007.59 1011.63 1007.68 1010.69 1007.16 1010.05L998.575 999.625C998.048 998.986 997.103 998.894 996.464 999.421C995.824 999.948 995.733 1000.89 996.259 1001.53L1003.89 1010.8L994.624 1018.42C993.985 1018.95 993.893 1019.9 994.42 1020.54C994.947 1021.17 995.892 1021.27 996.532 1020.74L1006.95 1012.16ZM961.82 1008.23L1005.85 1012.49L1006.14 1009.51L962.109 1005.25L961.82 1008.23Z" fill="#FA0000"/>
<path d="M514.939 749.061C515.525 749.646 516.475 749.646 517.061 749.061L526.607 739.515C527.192 738.929 527.192 737.979 526.607 737.393C526.021 736.808 525.071 736.808 524.485 737.393L516 745.879L507.515 737.393C506.929 736.808 505.979 736.808 505.393 737.393C504.808 737.979 504.808 738.929 505.393 739.515L514.939 749.061ZM514.5 391L514.5 748L517.5 748L517.5 391L514.5 391Z" fill="#FA0000"/>
<path d="M517.061 389.941C516.475 389.355 515.525 389.355 514.939 389.941L505.393 399.487C504.808 400.073 504.808 401.022 505.393 401.608C505.979 402.194 506.929 402.194 507.515 401.608L516 393.123L524.485 401.608C525.071 402.194 526.021 402.194 526.607 401.608C527.192 401.022 527.192 400.073 526.607 399.487L517.061 389.941ZM517.5 644.553L517.5 391.002L514.5 391.002L514.5 644.553L517.5 644.553Z" fill="#FA0000"/>
<path d="M273.931 703.052C274.511 703.642 275.461 703.65 276.052 703.069L285.677 693.603C286.267 693.022 286.275 692.072 285.694 691.482C285.113 690.891 284.164 690.883 283.573 691.464L275.018 699.879L266.603 691.323C266.022 690.733 265.072 690.725 264.482 691.306C263.891 691.887 263.883 692.836 264.464 693.427L273.931 703.052ZM275.5 460.988L273.5 701.988L276.5 702.012L278.5 461.012L275.5 460.988Z" fill="#FA0000"/>
<path d="M278.07 459.949C277.489 459.359 276.539 459.351 275.949 459.932L266.324 469.398C265.733 469.979 265.725 470.929 266.306 471.519C266.887 472.11 267.837 472.118 268.428 471.537L276.983 463.122L285.398 471.678C285.978 472.268 286.928 472.276 287.519 471.695C288.109 471.115 288.117 470.165 287.536 469.574L278.07 459.949ZM277.08 632.178L278.5 461.014L275.501 460.989L274.08 632.154L277.08 632.178Z" fill="#FA0000"/>
<path d="M267.141 746.77C266.462 747.244 266.296 748.179 266.77 748.859L274.497 759.929C274.971 760.608 275.906 760.774 276.585 760.3C277.265 759.826 277.431 758.891 276.957 758.212L270.089 748.371L279.929 741.503C280.608 741.029 280.774 740.094 280.3 739.415C279.826 738.735 278.891 738.569 278.212 739.043L267.141 746.77ZM774.263 836.523L268.263 746.523L267.737 749.477L773.737 839.477L774.263 836.523Z" fill="#FA0000"/>
<path d="M774.853 839.233C775.532 838.758 775.698 837.823 775.224 837.144L767.497 826.074C767.023 825.395 766.088 825.228 765.409 825.702C764.73 826.177 764.563 827.112 765.037 827.791L771.906 837.631L762.066 844.499C761.386 844.973 761.22 845.909 761.694 846.588C762.168 847.267 763.103 847.433 763.783 846.959L774.853 839.233ZM414.356 775.559L773.732 839.479L774.257 836.526L414.882 772.605L414.356 775.559Z" fill="#FA0000"/>
<path d="M942.535 1204.69C942.363 1205.5 942.881 1206.3 943.692 1206.47L956.899 1209.27C957.709 1209.44 958.505 1208.92 958.677 1208.11C958.849 1207.3 958.331 1206.5 957.52 1206.33L945.78 1203.85L948.266 1192.11C948.437 1191.3 947.919 1190.5 947.109 1190.33C946.298 1190.16 945.502 1190.67 945.331 1191.49L942.535 1204.69ZM1295.18 974.743L943.184 1203.75L944.82 1206.26L1296.82 977.257L1295.18 974.743Z" fill="#FA0000"/>
<path d="M1297.47 976.317C1297.64 975.506 1297.12 974.71 1296.31 974.539L1283.1 971.743C1282.29 971.571 1281.5 972.089 1281.32 972.899C1281.15 973.71 1281.67 974.506 1282.48 974.678L1294.22 977.163L1291.74 988.903C1291.56 989.713 1292.08 990.509 1292.89 990.681C1293.7 990.852 1294.5 990.334 1294.67 989.524L1297.47 976.317ZM1046.82 1139.91L1296.82 977.263L1295.18 974.749L1045.18 1137.39L1046.82 1139.91Z" fill="#FA0000"/>
<path d="M199.423 806H195.176L207.46 772.545H211.642L223.926 806H219.679L209.682 777.838H209.42L199.423 806ZM200.991 792.932H218.111V796.526H200.991V792.932ZM238.738 772.545V806H234.687V776.793H234.491L226.323 782.216V778.099L234.687 772.545H238.738Z" fill="#FF0000"/>
<path d="M481.423 851H477.176L489.46 817.545H493.642L505.926 851H501.679L491.682 822.838H491.42L481.423 851ZM482.991 837.932H500.111V841.526H482.991V837.932ZM510.549 851V848.06L521.592 835.972C522.888 834.556 523.955 833.325 524.793 832.28C525.632 831.223 526.253 830.232 526.656 829.307C527.069 828.37 527.276 827.39 527.276 826.366C527.276 825.19 526.993 824.172 526.427 823.312C525.871 822.451 525.109 821.787 524.14 821.319C523.171 820.851 522.082 820.616 520.873 820.616C519.588 820.616 518.466 820.883 517.508 821.417C516.56 821.94 515.825 822.675 515.303 823.622C514.791 824.57 514.535 825.68 514.535 826.955H510.68C510.68 824.994 511.132 823.274 512.036 821.793C512.939 820.312 514.17 819.157 515.727 818.33C517.295 817.502 519.054 817.088 521.004 817.088C522.964 817.088 524.701 817.502 526.214 818.33C527.728 819.157 528.915 820.273 529.776 821.678C530.636 823.083 531.066 824.646 531.066 826.366C531.066 827.597 530.843 828.8 530.396 829.977C529.961 831.142 529.198 832.443 528.109 833.881C527.031 835.307 525.534 837.05 523.617 839.108L516.103 847.145V847.406H531.654V851H510.549Z" fill="#FF0000"/>
<path d="M291.051 599V565.545H302.747C305.078 565.545 307 565.948 308.513 566.754C310.027 567.549 311.154 568.622 311.895 569.972C312.635 571.312 313.006 572.798 313.006 574.432C313.006 575.869 312.75 577.056 312.238 577.993C311.737 578.929 311.073 579.67 310.245 580.214C309.428 580.759 308.541 581.162 307.582 581.423V581.75C308.606 581.815 309.635 582.175 310.67 582.828C311.704 583.482 312.57 584.418 313.267 585.638C313.964 586.857 314.312 588.349 314.312 590.114C314.312 591.791 313.931 593.299 313.169 594.638C312.407 595.978 311.203 597.04 309.559 597.824C307.915 598.608 305.775 599 303.139 599H291.051ZM295.102 595.406H303.139C305.786 595.406 307.664 594.894 308.775 593.871C309.897 592.836 310.457 591.584 310.457 590.114C310.457 588.981 310.169 587.936 309.592 586.977C309.014 586.008 308.192 585.235 307.125 584.658C306.058 584.07 304.795 583.776 303.335 583.776H295.102V595.406ZM295.102 580.247H302.616C303.836 580.247 304.936 580.008 305.916 579.528C306.907 579.049 307.691 578.374 308.268 577.503C308.857 576.632 309.151 575.608 309.151 574.432C309.151 572.962 308.639 571.715 307.615 570.691C306.591 569.656 304.969 569.139 302.747 569.139H295.102V580.247ZM332.142 565.545V599H328.091V569.793H327.895L319.728 575.216V571.099L328.091 565.545H332.142Z" fill="#FF0000"/>
<path d="M536.051 615V581.545H547.747C550.078 581.545 552 581.948 553.513 582.754C555.027 583.549 556.154 584.622 556.895 585.972C557.635 587.312 558.006 588.798 558.006 590.432C558.006 591.869 557.75 593.056 557.238 593.993C556.737 594.929 556.073 595.67 555.245 596.214C554.428 596.759 553.541 597.162 552.582 597.423V597.75C553.606 597.815 554.635 598.175 555.67 598.828C556.704 599.482 557.57 600.418 558.267 601.638C558.964 602.857 559.312 604.349 559.312 606.114C559.312 607.791 558.931 609.299 558.169 610.638C557.407 611.978 556.203 613.04 554.559 613.824C552.915 614.608 550.775 615 548.139 615H536.051ZM540.102 611.406H548.139C550.786 611.406 552.664 610.894 553.775 609.871C554.897 608.836 555.457 607.584 555.457 606.114C555.457 604.981 555.169 603.936 554.592 602.977C554.014 602.008 553.192 601.235 552.125 600.658C551.058 600.07 549.795 599.776 548.335 599.776H540.102V611.406ZM540.102 596.247H547.616C548.836 596.247 549.936 596.008 550.916 595.528C551.907 595.049 552.691 594.374 553.268 593.503C553.857 592.632 554.151 591.608 554.151 590.432C554.151 588.962 553.639 587.715 552.615 586.691C551.591 585.656 549.969 585.139 547.747 585.139H540.102V596.247ZM565.381 615V612.06L576.424 599.972C577.72 598.556 578.787 597.325 579.625 596.28C580.464 595.223 581.085 594.232 581.488 593.307C581.901 592.37 582.108 591.39 582.108 590.366C582.108 589.19 581.825 588.172 581.259 587.312C580.703 586.451 579.941 585.787 578.972 585.319C578.003 584.851 576.914 584.616 575.705 584.616C574.42 584.616 573.298 584.883 572.34 585.417C571.392 585.94 570.657 586.675 570.135 587.622C569.623 588.57 569.367 589.68 569.367 590.955H565.512C565.512 588.994 565.964 587.274 566.868 585.793C567.771 584.312 569.002 583.157 570.559 582.33C572.127 581.502 573.886 581.088 575.836 581.088C577.796 581.088 579.533 581.502 581.047 582.33C582.56 583.157 583.747 584.273 584.608 585.678C585.468 587.083 585.898 588.646 585.898 590.366C585.898 591.597 585.675 592.8 585.228 593.977C584.793 595.142 584.03 596.443 582.941 597.881C581.863 599.307 580.366 601.05 578.449 603.108L570.935 611.145V611.406H586.486V615H565.381Z" fill="#FF0000"/>
<path d="M988.972 1043H984.92C984.681 1041.83 984.262 1040.81 983.663 1039.93C983.075 1039.05 982.356 1038.31 981.506 1037.71C980.668 1037.1 979.737 1036.64 978.713 1036.34C977.689 1036.03 976.622 1035.88 975.511 1035.88C973.486 1035.88 971.651 1036.39 970.006 1037.41C968.373 1038.44 967.071 1039.95 966.102 1041.94C965.144 1043.93 964.665 1046.38 964.665 1049.27C964.665 1052.17 965.144 1054.61 966.102 1056.61C967.071 1058.6 968.373 1060.11 970.006 1061.13C971.651 1062.16 973.486 1062.67 975.511 1062.67C976.622 1062.67 977.689 1062.52 978.713 1062.21C979.737 1061.91 980.668 1061.45 981.506 1060.85C982.356 1060.24 983.075 1059.5 983.663 1058.62C984.262 1057.72 984.681 1056.7 984.92 1055.55H988.972C988.667 1057.26 988.111 1058.79 987.305 1060.14C986.5 1061.49 985.498 1062.63 984.3 1063.58C983.102 1064.52 981.757 1065.23 980.265 1065.72C978.784 1066.21 977.199 1066.46 975.511 1066.46C972.658 1066.46 970.121 1065.76 967.899 1064.37C965.678 1062.97 963.93 1060.99 962.656 1058.42C961.381 1055.85 960.744 1052.8 960.744 1049.27C960.744 1045.74 961.381 1042.7 962.656 1040.12C963.93 1037.55 965.678 1035.57 967.899 1034.18C970.121 1032.79 972.658 1032.09 975.511 1032.09C977.199 1032.09 978.784 1032.33 980.265 1032.82C981.757 1033.31 983.102 1034.03 984.3 1034.98C985.498 1035.92 986.5 1037.06 987.305 1038.41C988.111 1039.75 988.667 1041.28 988.972 1043Z" fill="#FF0000"/>
<path d="M1173.38 1126H1163.05V1092.55H1173.83C1177.08 1092.55 1179.85 1093.22 1182.16 1094.55C1184.47 1095.88 1186.24 1097.79 1187.47 1100.29C1188.7 1102.77 1189.32 1105.74 1189.32 1109.21C1189.32 1112.69 1188.7 1115.69 1187.46 1118.21C1186.21 1120.71 1184.41 1122.64 1182.03 1123.99C1179.66 1125.33 1176.77 1126 1173.38 1126ZM1167.1 1122.41H1173.11C1175.88 1122.41 1178.17 1121.87 1179.99 1120.81C1181.81 1119.74 1183.17 1118.22 1184.06 1116.25C1184.95 1114.28 1185.4 1111.93 1185.4 1109.21C1185.4 1106.51 1184.96 1104.18 1184.07 1102.23C1183.19 1100.27 1181.87 1098.77 1180.12 1097.72C1178.37 1096.67 1176.18 1096.14 1173.57 1096.14H1167.1V1122.41Z" fill="#FF0000"/>
</svg>
