<svg width="1442" height="1407" viewBox="0 0 1442 1407" fill="none" xmlns="http://www.w3.org/2000/svg">
<rect x="183" y="599" width="18" height="28" fill="#8B8B8B"/>
<rect x="1231" y="508" width="18" height="27" fill="#8B8B8B"/>
<path d="M183.065 598.848L809.566 240.848L1248.57 506.941L622.066 864.942L183.065 598.848Z" fill="#D9D9D9"/>
<line x1="788.523" y1="381.664" x2="807.523" y2="241.664" stroke="#8B8B8B" stroke-width="5"/>
<line x1="789.662" y1="383.589" x2="1248.66" y2="509.589" stroke="#8B8B8B" stroke-width="5"/>
<line x1="805.296" y1="241.862" x2="1247.3" y2="509.862" stroke="#8B8B8B" stroke-width="5"/>
<line x1="808.248" y1="242.166" x2="185.248" y2="601.166" stroke="#8B8B8B" stroke-width="5"/>
<line x1="603.671" y1="484.408" x2="183.671" y2="601.408" stroke="#8B8B8B" stroke-width="5"/>
<line x1="615.659" y1="867.353" x2="188.931" y2="617.249" stroke="#8B8B8B" stroke-width="24"/>
<line x1="603.497" y1="481.874" x2="622.497" y2="859.875" stroke="#8B8B8B" stroke-width="5"/>
<line x1="792.191" y1="381.198" x2="602.191" y2="484.198" stroke="#848383" stroke-width="5"/>
<line x1="1242.88" y1="524.46" x2="616.882" y2="876.46" stroke="#8B8B8B" stroke-width="24"/>
<path d="M380 734L1012 375" stroke="#8B8B8B" stroke-width="7" stroke-dasharray="25 25"/>
<path d="M791 501L789 386" stroke="#8B8B8B" stroke-width="7" stroke-dasharray="20 20"/>
<path d="M791 457L826 439" stroke="#8B8B8B" stroke-width="5"/>
<line x1="823.5" y1="483" x2="823.5" y2="439" stroke="#8B8B8B" stroke-width="5"/>
<line x1="243" y1="651" x2="243" y2="1004" stroke="#8B8B8B" stroke-width="24"/>
<line x1="613" y1="860" x2="613" y2="1222" stroke="#8B8B8B" stroke-width="24"/>
<line x1="1160" y1="570" x2="1160" y2="933" stroke="#8B8B8B" stroke-width="24"/>
<path d="M1251.05 553.197C1251.27 552.398 1250.8 551.572 1250 551.353L1236.99 547.781C1236.19 547.562 1235.36 548.032 1235.14 548.831C1234.92 549.63 1235.39 550.455 1236.19 550.674L1247.76 553.849L1244.59 565.423C1244.37 566.222 1244.84 567.047 1245.64 567.266C1246.44 567.485 1247.26 567.015 1247.48 566.216L1251.05 553.197ZM621.744 912.079L1250.35 554.103L1248.86 551.496L620.26 909.472L621.744 912.079Z" fill="#8B8B8B"/>
<path d="M618.557 910.383C618.338 911.182 618.809 912.007 619.608 912.226L632.628 915.789C633.427 916.008 634.252 915.537 634.471 914.738C634.689 913.939 634.219 913.114 633.42 912.895L621.846 909.728L625.014 898.153C625.232 897.354 624.762 896.529 623.963 896.31C623.164 896.091 622.339 896.562 622.12 897.361L618.557 910.383ZM1246.86 551.501L619.261 909.476L620.747 912.082L1248.35 554.107L1246.86 551.501Z" fill="#8B8B8B"/>
<path d="M921.375 806H911.051V772.545H921.832C925.078 772.545 927.855 773.215 930.163 774.555C932.472 775.883 934.242 777.795 935.472 780.288C936.703 782.771 937.318 785.744 937.318 789.207C937.318 792.692 936.697 795.692 935.456 798.208C934.214 800.713 932.407 802.64 930.033 803.991C927.659 805.33 924.773 806 921.375 806ZM915.102 802.406H921.114C923.88 802.406 926.172 801.873 927.991 800.805C929.809 799.738 931.165 798.219 932.058 796.248C932.951 794.277 933.398 791.93 933.398 789.207C933.398 786.507 932.957 784.182 932.075 782.232C931.192 780.272 929.875 778.769 928.121 777.724C926.368 776.667 924.185 776.139 921.571 776.139H915.102V802.406Z" fill="#8B8B8B"/>
<path d="M183.643 648.545C182.839 648.742 182.346 649.554 182.543 650.359L185.754 663.471C185.951 664.276 186.764 664.769 187.568 664.571C188.373 664.374 188.865 663.562 188.668 662.758L185.814 651.102L197.469 648.248C198.274 648.051 198.767 647.239 198.57 646.434C198.372 645.629 197.56 645.137 196.756 645.334L183.643 648.545ZM611.778 907.718L184.778 648.72L183.222 651.285L610.222 910.283L611.778 907.718Z" fill="#FA0000"/>
<path d="M611.356 910.457C612.161 910.26 612.653 909.448 612.456 908.643L609.245 895.531C609.048 894.726 608.236 894.233 607.431 894.43C606.627 894.628 606.134 895.44 606.331 896.244L609.186 907.9L597.53 910.754C596.725 910.951 596.233 911.763 596.43 912.568C596.627 913.373 597.439 913.865 598.244 913.668L611.356 910.457ZM306.955 726.334L610.221 910.282L611.777 907.717L308.51 723.769L306.955 726.334Z" fill="#FA0000"/>
<path d="M361.423 823H357.176L369.46 789.545H373.642L385.926 823H381.679L371.682 794.838H371.42L361.423 823ZM362.991 809.932H380.111V813.526H362.991V809.932Z" fill="#FA0000"/>
<line x1="606.921" y1="1209.35" x2="235.921" y2="991.346" stroke="#8B8B8B" stroke-width="24"/>
<line x1="1163.59" y1="922.618" x2="618.591" y2="1209.62" stroke="#8B8B8B" stroke-width="24"/>
<path d="M749.051 465V431.545H753.102V448.142H753.494L768.523 431.545H773.815L759.767 446.639L773.815 465H768.915L757.284 449.449L753.102 454.153V465H749.051Z" fill="#8B8B8B"/>
<path d="M782.903 367.549C783.091 366.781 782.562 365.992 781.722 365.787L768.032 362.436C767.192 362.23 766.359 362.686 766.171 363.453C765.983 364.221 766.512 365.01 767.352 365.216L779.521 368.194L776.799 379.313C776.611 380.081 777.14 380.87 777.98 381.076C778.82 381.281 779.653 380.826 779.841 380.058L782.903 367.549ZM596.564 469.916L782.217 368.423L780.547 365.931L594.893 467.424L596.564 469.916Z" fill="#8B8B8B"/>
<path d="M593.712 468.015C593.525 468.784 594.054 469.572 594.893 469.777L608.574 473.107C609.414 473.312 610.246 472.854 610.433 472.085C610.62 471.317 610.091 470.528 609.252 470.323L597.091 467.363L599.802 456.227C599.989 455.459 599.46 454.67 598.621 454.465C597.781 454.261 596.949 454.719 596.762 455.487L593.712 468.015ZM779.551 365.357L594.397 467.139L596.067 469.631L781.222 367.848L779.551 365.357Z" fill="#8B8B8B"/>
<path d="M663.051 403V369.545H674.747C677.078 369.545 679 369.948 680.513 370.754C682.027 371.549 683.154 372.622 683.895 373.972C684.635 375.312 685.006 376.798 685.006 378.432C685.006 379.869 684.75 381.056 684.238 381.993C683.737 382.929 683.073 383.67 682.245 384.214C681.428 384.759 680.541 385.162 679.582 385.423V385.75C680.606 385.815 681.635 386.175 682.67 386.828C683.704 387.482 684.57 388.418 685.267 389.638C685.964 390.857 686.312 392.349 686.312 394.114C686.312 395.791 685.931 397.299 685.169 398.638C684.407 399.978 683.203 401.04 681.559 401.824C679.915 402.608 677.775 403 675.139 403H663.051ZM667.102 399.406H675.139C677.786 399.406 679.664 398.894 680.775 397.871C681.897 396.836 682.457 395.584 682.457 394.114C682.457 392.981 682.169 391.936 681.592 390.977C681.014 390.008 680.192 389.235 679.125 388.658C678.058 388.07 676.795 387.776 675.335 387.776H667.102V399.406ZM667.102 384.247H674.616C675.836 384.247 676.936 384.008 677.916 383.528C678.907 383.049 679.691 382.374 680.268 381.503C680.857 380.632 681.151 379.608 681.151 378.432C681.151 376.962 680.639 375.715 679.615 374.691C678.591 373.656 676.969 373.139 674.747 373.139H667.102V384.247Z" fill="#8B8B8B"/>
</svg>
