<svg width="1442" height="1407" viewBox="0 0 1442 1407" fill="none" xmlns="http://www.w3.org/2000/svg">
<rect x="183" y="626" width="19" height="29" fill="#8B8B8B"/>
<rect x="1230" y="535" width="18" height="27" fill="#8B8B8B"/>
<path d="M183.065 626.848L809.566 268.848L1248.57 534.941L622.066 892.942L183.065 626.848Z" fill="#D9D9D9"/>
<line x1="705.9" y1="424.644" x2="807.9" y2="266.644" stroke="#8B8B8B" stroke-width="5"/>
<line x1="708.513" y1="423.553" x2="1247.51" y2="536.553" stroke="#8B8B8B" stroke-width="5"/>
<line x1="805.3" y1="267.864" x2="1247.3" y2="536.864" stroke="#8B8B8B" stroke-width="5"/>
<line x1="808.255" y1="266.162" x2="184.254" y2="628.162" stroke="#8B8B8B" stroke-width="5"/>
<line x1="708.919" y1="422.325" x2="184.919" y2="629.325" stroke="#8B8B8B" stroke-width="5"/>
<line x1="614.003" y1="897.312" x2="189.72" y2="644.787" stroke="#8B8B8B" stroke-width="24"/>
<line x1="604.921" y1="1207.35" x2="233.921" y2="989.346" stroke="#8B8B8B" stroke-width="24"/>
<line x1="710.457" y1="420.463" x2="622.457" y2="887.463" stroke="#8B8B8B" stroke-width="5"/>
<line x1="1241.89" y1="551.456" x2="616.889" y2="903.456" stroke="#8B8B8B" stroke-width="24"/>
<line x1="1171.56" y1="917.636" x2="616.557" y2="1207.64" stroke="#8B8B8B" stroke-width="24"/>
<line x1="243" y1="678" x2="243" y2="997" stroke="#8B8B8B" stroke-width="24"/>
<line x1="613" y1="887" x2="613" y2="1221" stroke="#8B8B8B" stroke-width="24"/>
<line x1="1160" y1="597" x2="1160" y2="937" stroke="#8B8B8B" stroke-width="24"/>
</svg>
