<svg width="1442" height="1407" viewBox="0 0 1442 1407" fill="none" xmlns="http://www.w3.org/2000/svg">
<rect x="183" y="599" width="18" height="28" fill="#8B8B8B"/>
<rect x="1231" y="508" width="18" height="27" fill="#8B8B8B"/>
<path d="M183.065 598.848L809.566 240.848L1248.57 506.941L622.066 864.942L183.065 598.848Z" fill="#D9D9D9"/>
<line x1="788.523" y1="381.664" x2="807.523" y2="241.664" stroke="#8B8B8B" stroke-width="5"/>
<line x1="789.662" y1="383.589" x2="1248.66" y2="509.589" stroke="#8B8B8B" stroke-width="5"/>
<line x1="805.296" y1="241.862" x2="1247.3" y2="509.862" stroke="#8B8B8B" stroke-width="5"/>
<line x1="808.248" y1="242.166" x2="185.248" y2="601.166" stroke="#8B8B8B" stroke-width="5"/>
<line x1="603.671" y1="484.408" x2="183.671" y2="601.408" stroke="#8B8B8B" stroke-width="5"/>
<line x1="615.659" y1="867.353" x2="188.931" y2="617.249" stroke="#8B8B8B" stroke-width="24"/>
<line x1="603.497" y1="481.874" x2="622.497" y2="859.875" stroke="#8B8B8B" stroke-width="5"/>
<line x1="792.191" y1="381.198" x2="602.191" y2="484.198" stroke="#848383" stroke-width="5"/>
<line x1="1242.88" y1="524.46" x2="616.882" y2="876.46" stroke="#8B8B8B" stroke-width="24"/>
<line x1="243" y1="651" x2="243" y2="1004" stroke="#8B8B8B" stroke-width="24"/>
<line x1="613" y1="860" x2="613" y2="1222" stroke="#8B8B8B" stroke-width="24"/>
<line x1="1160" y1="570" x2="1160" y2="933" stroke="#8B8B8B" stroke-width="24"/>
<line x1="606.921" y1="1209.35" x2="235.921" y2="991.346" stroke="#8B8B8B" stroke-width="24"/>
<line x1="1163.59" y1="922.618" x2="618.591" y2="1209.62" stroke="#8B8B8B" stroke-width="24"/>
</svg>
