<svg width="1442" height="1407" viewBox="0 0 1442 1407" fill="none" xmlns="http://www.w3.org/2000/svg">
<rect x="183" y="626" width="19" height="29" fill="#8B8B8B"/>
<rect x="1230" y="535" width="18" height="27" fill="#8B8B8B"/>
<path d="M183.065 626.848L809.566 268.848L1248.57 534.941L622.066 892.942L183.065 626.848Z" fill="#D9D9D9"/>
<path d="M725.051 500V466.545H729.102V483.142H729.494L744.523 466.545H749.815L735.767 481.639L749.815 500H744.915L733.284 484.449L729.102 489.153V500H725.051Z" fill="#8B8B8B" fill-opacity="0.721569"/>
<line x1="705.9" y1="424.644" x2="807.9" y2="266.644" stroke="#8B8B8B" stroke-width="5"/>
<line x1="708.513" y1="423.553" x2="1247.51" y2="536.553" stroke="#8B8B8B" stroke-width="5"/>
<line x1="805.3" y1="267.864" x2="1247.3" y2="536.864" stroke="#8B8B8B" stroke-width="5"/>
<line x1="808.255" y1="266.162" x2="184.254" y2="628.162" stroke="#8B8B8B" stroke-width="5"/>
<line x1="708.919" y1="422.325" x2="184.919" y2="629.325" stroke="#8B8B8B" stroke-width="5"/>
<line x1="614.003" y1="897.312" x2="189.72" y2="644.787" stroke="#8B8B8B" stroke-width="24"/>
<line x1="604.921" y1="1207.35" x2="233.921" y2="989.346" stroke="#8B8B8B" stroke-width="24"/>
<line x1="710.457" y1="420.463" x2="622.457" y2="887.463" stroke="#8B8B8B" stroke-width="5"/>
<line x1="1241.89" y1="551.456" x2="616.889" y2="903.456" stroke="#8B8B8B" stroke-width="24"/>
<line x1="1171.56" y1="917.636" x2="616.557" y2="1207.64" stroke="#8B8B8B" stroke-width="24"/>
<path d="M380 761L1012 402" stroke="#8B8B8B" stroke-width="7" stroke-dasharray="25 25"/>
<path d="M708 573L708 420" stroke="#8B8B8B" stroke-opacity="0.721569" stroke-width="7" stroke-dasharray="20 20"/>
<path d="M708.18 529L742.819 510.314" stroke="#8B8B8B" stroke-width="5"/>
<line x1="740.5" y1="555" x2="740.5" y2="511" stroke="#8B8B8B" stroke-width="5"/>
<line x1="243" y1="678" x2="243" y2="997" stroke="#8B8B8B" stroke-width="24"/>
<line x1="613" y1="887" x2="613" y2="1221" stroke="#8B8B8B" stroke-width="24"/>
<line x1="1160" y1="597" x2="1160" y2="937" stroke="#8B8B8B" stroke-width="24"/>
<path d="M1251.05 581.197C1251.27 580.398 1250.8 579.572 1250 579.353L1236.99 575.781C1236.19 575.562 1235.36 576.032 1235.14 576.831C1234.92 577.63 1235.39 578.455 1236.19 578.674L1247.76 581.849L1244.59 593.423C1244.37 594.222 1244.84 595.047 1245.64 595.266C1246.44 595.485 1247.26 595.015 1247.48 594.216L1251.05 581.197ZM621.744 940.079L1250.35 582.103L1248.86 579.496L620.26 937.472L621.744 940.079Z" fill="#8B8B8B"/>
<path d="M618.557 938.384C618.338 939.183 618.809 940.008 619.608 940.227L632.628 943.79C633.427 944.009 634.252 943.538 634.471 942.739C634.689 941.94 634.219 941.115 633.42 940.896L621.846 937.729L625.014 926.154C625.232 925.355 624.762 924.53 623.963 924.311C623.164 924.092 622.339 924.563 622.12 925.362L618.557 938.384ZM1246.86 579.502L619.261 937.477L620.747 940.083L1248.35 582.108L1246.86 579.502Z" fill="#8B8B8B"/>
<path d="M921.375 827H911.051V793.545H921.832C925.078 793.545 927.855 794.215 930.163 795.555C932.472 796.883 934.242 798.795 935.472 801.288C936.703 803.771 937.318 806.744 937.318 810.207C937.318 813.692 936.697 816.692 935.456 819.208C934.214 821.713 932.407 823.64 930.033 824.991C927.659 826.33 924.773 827 921.375 827ZM915.102 823.406H921.114C923.88 823.406 926.172 822.873 927.991 821.805C929.809 820.738 931.165 819.219 932.058 817.248C932.951 815.277 933.398 812.93 933.398 810.207C933.398 807.507 932.957 805.182 932.075 803.232C931.192 801.272 929.875 799.769 928.121 798.724C926.368 797.667 924.185 797.139 921.571 797.139H915.102V823.406Z" fill="#8B8B8B" fill-opacity="0.721569"/>
<path d="M183.643 676.544C182.839 676.741 182.346 677.553 182.543 678.358L185.754 691.47C185.951 692.275 186.764 692.768 187.568 692.571C188.373 692.373 188.865 691.561 188.668 690.757L185.814 679.101L197.469 676.247C198.274 676.05 198.767 675.238 198.57 674.433C198.372 673.628 197.56 673.136 196.756 673.333L183.643 676.544ZM611.778 935.717L184.778 676.719L183.222 679.284L610.222 938.283L611.778 935.717Z" fill="#FA0000"/>
<path d="M611.356 938.456C612.161 938.259 612.653 937.447 612.456 936.642L609.245 923.53C609.048 922.725 608.236 922.232 607.431 922.429C606.627 922.627 606.134 923.439 606.331 924.243L609.186 935.899L597.53 938.753C596.725 938.95 596.233 939.762 596.43 940.567C596.627 941.372 597.439 941.864 598.244 941.667L611.356 938.456ZM306.955 754.333L610.221 938.281L611.777 935.716L308.51 751.768L306.955 754.333Z" fill="#FA0000"/>
<path d="M361.423 851H357.176L369.46 817.545H373.642L385.926 851H381.679L371.682 822.838H371.42L361.423 851ZM362.991 837.932H380.111V841.526H362.991V837.932Z" fill="#FA0000" fill-opacity="0.721569"/>
</svg>
